<mxfile host="app.diagrams.net" agent="Mozilla/5.0 (X11; Ubuntu; Linux x86_64; rv:133.0) Gecko/20100101 Firefox/133.0" version="26.0.11">
  <diagram name="Page-1" id="yhR9xIfOLEBxY_iIEOaB">
    <mxGraphModel dx="1952" dy="1853" grid="1" gridSize="10" guides="1" tooltips="1" connect="1" arrows="1" fold="1" page="1" pageScale="1" pageWidth="850" pageHeight="1100" math="0" shadow="0">
      <root>
        <mxCell id="0" />
        <mxCell id="1" parent="0" />
        <mxCell id="Tj6w95I26i3mna5uBkC6-1" value="Artist" style="rounded=0;whiteSpace=wrap;html=1;" vertex="1" parent="1">
          <mxGeometry x="40" y="-50" width="120" height="60" as="geometry" />
        </mxCell>
        <mxCell id="Tj6w95I26i3mna5uBkC6-2" value="&lt;div&gt;Piece of art&lt;/div&gt;" style="rounded=0;whiteSpace=wrap;html=1;" vertex="1" parent="1">
          <mxGeometry x="290" y="270" width="120" height="60" as="geometry" />
        </mxCell>
        <mxCell id="Tj6w95I26i3mna5uBkC6-3" value="Museum" style="rounded=0;whiteSpace=wrap;html=1;" vertex="1" parent="1">
          <mxGeometry x="1230" y="280" width="120" height="60" as="geometry" />
        </mxCell>
        <mxCell id="Tj6w95I26i3mna5uBkC6-4" value="Location" style="rounded=0;whiteSpace=wrap;html=1;" vertex="1" parent="1">
          <mxGeometry x="970" y="35" width="120" height="60" as="geometry" />
        </mxCell>
        <mxCell id="Tj6w95I26i3mna5uBkC6-5" value="Move" style="rounded=0;whiteSpace=wrap;html=1;" vertex="1" parent="1">
          <mxGeometry x="350" y="480" width="120" height="60" as="geometry" />
        </mxCell>
        <mxCell id="Tj6w95I26i3mna5uBkC6-6" value="&lt;div&gt;Specific&lt;/div&gt;&lt;div&gt;move&lt;br&gt;&lt;/div&gt;" style="rounded=0;whiteSpace=wrap;html=1;" vertex="1" parent="1">
          <mxGeometry x="530" y="330" width="120" height="60" as="geometry" />
        </mxCell>
        <mxCell id="Tj6w95I26i3mna5uBkC6-7" value="Storage" style="rounded=0;whiteSpace=wrap;html=1;" vertex="1" parent="1">
          <mxGeometry x="1230" y="35" width="120" height="60" as="geometry" />
        </mxCell>
        <mxCell id="Tj6w95I26i3mna5uBkC6-8" value="Exibition" style="rounded=0;whiteSpace=wrap;html=1;" vertex="1" parent="1">
          <mxGeometry x="530" y="215" width="120" height="60" as="geometry" />
        </mxCell>
        <mxCell id="Tj6w95I26i3mna5uBkC6-9" value="Collection" style="rounded=0;whiteSpace=wrap;html=1;" vertex="1" parent="1">
          <mxGeometry x="530" y="95" width="120" height="60" as="geometry" />
        </mxCell>
        <mxCell id="Tj6w95I26i3mna5uBkC6-10" value="Painting" style="rounded=0;whiteSpace=wrap;html=1;" vertex="1" parent="1">
          <mxGeometry x="30" y="190" width="120" height="60" as="geometry" />
        </mxCell>
        <mxCell id="Tj6w95I26i3mna5uBkC6-11" value="Sculture" style="rounded=0;whiteSpace=wrap;html=1;" vertex="1" parent="1">
          <mxGeometry x="30" y="360" width="120" height="60" as="geometry" />
        </mxCell>
        <mxCell id="Tj6w95I26i3mna5uBkC6-12" value="&lt;div&gt;Birth&amp;nbsp;&lt;/div&gt;&lt;div&gt;Date&lt;/div&gt;" style="ellipse;whiteSpace=wrap;html=1;" vertex="1" parent="1">
          <mxGeometry x="-130" y="-160" width="100" height="70" as="geometry" />
        </mxCell>
        <mxCell id="Tj6w95I26i3mna5uBkC6-13" value="&lt;div&gt;Birth&lt;/div&gt;&lt;div&gt;Place&lt;br&gt;&lt;/div&gt;" style="rhombus;whiteSpace=wrap;html=1;" vertex="1" parent="1">
          <mxGeometry x="180" y="-165" width="80" height="80" as="geometry" />
        </mxCell>
        <mxCell id="Tj6w95I26i3mna5uBkC6-14" value="Name" style="ellipse;whiteSpace=wrap;html=1;" vertex="1" parent="1">
          <mxGeometry x="-140" y="-10" width="100" height="70" as="geometry" />
        </mxCell>
        <mxCell id="Tj6w95I26i3mna5uBkC6-15" value="City" style="ellipse;whiteSpace=wrap;html=1;" vertex="1" parent="1">
          <mxGeometry x="870" y="-90" width="100" height="70" as="geometry" />
        </mxCell>
        <mxCell id="Tj6w95I26i3mna5uBkC6-16" value="Number" style="ellipse;whiteSpace=wrap;html=1;" vertex="1" parent="1">
          <mxGeometry x="980" y="-90" width="100" height="70" as="geometry" />
        </mxCell>
        <mxCell id="Tj6w95I26i3mna5uBkC6-17" value="Street" style="ellipse;whiteSpace=wrap;html=1;" vertex="1" parent="1">
          <mxGeometry x="1090" y="-90" width="100" height="70" as="geometry" />
        </mxCell>
        <mxCell id="Tj6w95I26i3mna5uBkC6-18" value="Width" style="ellipse;whiteSpace=wrap;html=1;" vertex="1" parent="1">
          <mxGeometry x="-130" y="140" width="100" height="70" as="geometry" />
        </mxCell>
        <mxCell id="Tj6w95I26i3mna5uBkC6-19" value="Length" style="ellipse;whiteSpace=wrap;html=1;" vertex="1" parent="1">
          <mxGeometry x="-130" y="230" width="100" height="70" as="geometry" />
        </mxCell>
        <mxCell id="Tj6w95I26i3mna5uBkC6-20" value="Width" style="ellipse;whiteSpace=wrap;html=1;" vertex="1" parent="1">
          <mxGeometry x="-130" y="380" width="100" height="70" as="geometry" />
        </mxCell>
        <mxCell id="Tj6w95I26i3mna5uBkC6-21" value="Length" style="ellipse;whiteSpace=wrap;html=1;" vertex="1" parent="1">
          <mxGeometry x="-130" y="470" width="100" height="70" as="geometry" />
        </mxCell>
        <mxCell id="Tj6w95I26i3mna5uBkC6-22" value="Depth" style="ellipse;whiteSpace=wrap;html=1;" vertex="1" parent="1">
          <mxGeometry x="10" y="470" width="100" height="70" as="geometry" />
        </mxCell>
        <mxCell id="Tj6w95I26i3mna5uBkC6-23" value="" style="endArrow=none;html=1;rounded=0;exitX=0;exitY=0.5;exitDx=0;exitDy=0;entryX=1;entryY=1;entryDx=0;entryDy=0;" edge="1" parent="1" source="Tj6w95I26i3mna5uBkC6-1" target="Tj6w95I26i3mna5uBkC6-12">
          <mxGeometry width="50" height="50" relative="1" as="geometry">
            <mxPoint x="330" y="300" as="sourcePoint" />
            <mxPoint x="380" y="250" as="targetPoint" />
          </mxGeometry>
        </mxCell>
        <mxCell id="Tj6w95I26i3mna5uBkC6-24" value="" style="endArrow=none;html=1;rounded=0;entryX=1;entryY=0.5;entryDx=0;entryDy=0;" edge="1" parent="1" target="Tj6w95I26i3mna5uBkC6-14">
          <mxGeometry width="50" height="50" relative="1" as="geometry">
            <mxPoint x="40" y="-20" as="sourcePoint" />
            <mxPoint x="380" y="250" as="targetPoint" />
          </mxGeometry>
        </mxCell>
        <mxCell id="Tj6w95I26i3mna5uBkC6-25" value="" style="endArrow=none;html=1;rounded=0;entryX=0.5;entryY=0;entryDx=0;entryDy=0;exitX=0.5;exitY=1;exitDx=0;exitDy=0;" edge="1" parent="1" source="Tj6w95I26i3mna5uBkC6-15" target="Tj6w95I26i3mna5uBkC6-4">
          <mxGeometry width="50" height="50" relative="1" as="geometry">
            <mxPoint x="750" y="20" as="sourcePoint" />
            <mxPoint x="800" y="-30" as="targetPoint" />
          </mxGeometry>
        </mxCell>
        <mxCell id="Tj6w95I26i3mna5uBkC6-26" value="" style="endArrow=none;html=1;rounded=0;entryX=0.5;entryY=0;entryDx=0;entryDy=0;exitX=0.5;exitY=1;exitDx=0;exitDy=0;" edge="1" parent="1" source="Tj6w95I26i3mna5uBkC6-16" target="Tj6w95I26i3mna5uBkC6-4">
          <mxGeometry width="50" height="50" relative="1" as="geometry">
            <mxPoint x="930" y="-10" as="sourcePoint" />
            <mxPoint x="1040" y="40" as="targetPoint" />
          </mxGeometry>
        </mxCell>
        <mxCell id="Tj6w95I26i3mna5uBkC6-28" value="" style="endArrow=none;html=1;rounded=0;entryX=0.5;entryY=0;entryDx=0;entryDy=0;exitX=0.5;exitY=1;exitDx=0;exitDy=0;" edge="1" parent="1" source="Tj6w95I26i3mna5uBkC6-17" target="Tj6w95I26i3mna5uBkC6-4">
          <mxGeometry width="50" height="50" relative="1" as="geometry">
            <mxPoint x="1040" y="-10" as="sourcePoint" />
            <mxPoint x="1040" y="40" as="targetPoint" />
          </mxGeometry>
        </mxCell>
        <mxCell id="Tj6w95I26i3mna5uBkC6-29" value="" style="endArrow=none;html=1;rounded=0;exitX=1;exitY=0.5;exitDx=0;exitDy=0;entryX=0;entryY=0.5;entryDx=0;entryDy=0;" edge="1" parent="1" source="Tj6w95I26i3mna5uBkC6-18" target="Tj6w95I26i3mna5uBkC6-10">
          <mxGeometry width="50" height="50" relative="1" as="geometry">
            <mxPoint x="330" y="180" as="sourcePoint" />
            <mxPoint x="380" y="130" as="targetPoint" />
          </mxGeometry>
        </mxCell>
        <mxCell id="Tj6w95I26i3mna5uBkC6-30" value="" style="endArrow=none;html=1;rounded=0;exitX=1;exitY=0.286;exitDx=0;exitDy=0;entryX=0;entryY=0.5;entryDx=0;entryDy=0;exitPerimeter=0;" edge="1" parent="1" source="Tj6w95I26i3mna5uBkC6-19" target="Tj6w95I26i3mna5uBkC6-10">
          <mxGeometry width="50" height="50" relative="1" as="geometry">
            <mxPoint x="-20" y="185" as="sourcePoint" />
            <mxPoint x="40" y="240" as="targetPoint" />
          </mxGeometry>
        </mxCell>
        <mxCell id="Tj6w95I26i3mna5uBkC6-31" value="" style="endArrow=none;html=1;rounded=0;exitX=1;exitY=0.5;exitDx=0;exitDy=0;entryX=0;entryY=0.5;entryDx=0;entryDy=0;" edge="1" parent="1" source="Tj6w95I26i3mna5uBkC6-20" target="Tj6w95I26i3mna5uBkC6-11">
          <mxGeometry width="50" height="50" relative="1" as="geometry">
            <mxPoint x="330" y="390" as="sourcePoint" />
            <mxPoint x="380" y="340" as="targetPoint" />
          </mxGeometry>
        </mxCell>
        <mxCell id="Tj6w95I26i3mna5uBkC6-32" value="" style="endArrow=none;html=1;rounded=0;exitX=1;exitY=0;exitDx=0;exitDy=0;entryX=0;entryY=1;entryDx=0;entryDy=0;" edge="1" parent="1" source="Tj6w95I26i3mna5uBkC6-21" target="Tj6w95I26i3mna5uBkC6-11">
          <mxGeometry width="50" height="50" relative="1" as="geometry">
            <mxPoint x="330" y="390" as="sourcePoint" />
            <mxPoint x="380" y="340" as="targetPoint" />
          </mxGeometry>
        </mxCell>
        <mxCell id="Tj6w95I26i3mna5uBkC6-33" value="" style="endArrow=none;html=1;rounded=0;exitX=0.5;exitY=0;exitDx=0;exitDy=0;entryX=0.5;entryY=1;entryDx=0;entryDy=0;" edge="1" parent="1" source="Tj6w95I26i3mna5uBkC6-22" target="Tj6w95I26i3mna5uBkC6-11">
          <mxGeometry width="50" height="50" relative="1" as="geometry">
            <mxPoint x="330" y="390" as="sourcePoint" />
            <mxPoint x="380" y="340" as="targetPoint" />
          </mxGeometry>
        </mxCell>
        <mxCell id="Tj6w95I26i3mna5uBkC6-36" value="d" style="ellipse;whiteSpace=wrap;html=1;aspect=fixed;" vertex="1" parent="1">
          <mxGeometry x="220" y="280" width="40" height="40" as="geometry" />
        </mxCell>
        <mxCell id="Tj6w95I26i3mna5uBkC6-37" value="" style="endArrow=none;html=1;rounded=0;entryX=0;entryY=0.5;entryDx=0;entryDy=0;exitX=1;exitY=0.5;exitDx=0;exitDy=0;" edge="1" parent="1" source="Tj6w95I26i3mna5uBkC6-36" target="Tj6w95I26i3mna5uBkC6-2">
          <mxGeometry width="50" height="50" relative="1" as="geometry">
            <mxPoint x="330" y="300" as="sourcePoint" />
            <mxPoint x="380" y="250" as="targetPoint" />
          </mxGeometry>
        </mxCell>
        <mxCell id="Tj6w95I26i3mna5uBkC6-38" value="" style="endArrow=none;html=1;rounded=0;exitX=1;exitY=0.5;exitDx=0;exitDy=0;entryX=0;entryY=1;entryDx=0;entryDy=0;" edge="1" parent="1" source="Tj6w95I26i3mna5uBkC6-11" target="Tj6w95I26i3mna5uBkC6-36">
          <mxGeometry width="50" height="50" relative="1" as="geometry">
            <mxPoint x="330" y="300" as="sourcePoint" />
            <mxPoint x="380" y="250" as="targetPoint" />
          </mxGeometry>
        </mxCell>
        <mxCell id="Tj6w95I26i3mna5uBkC6-39" value="" style="endArrow=none;html=1;rounded=0;entryX=1;entryY=0.5;entryDx=0;entryDy=0;exitX=0;exitY=0;exitDx=0;exitDy=0;" edge="1" parent="1" source="Tj6w95I26i3mna5uBkC6-36" target="Tj6w95I26i3mna5uBkC6-10">
          <mxGeometry width="50" height="50" relative="1" as="geometry">
            <mxPoint x="330" y="300" as="sourcePoint" />
            <mxPoint x="380" y="250" as="targetPoint" />
          </mxGeometry>
        </mxCell>
        <mxCell id="Tj6w95I26i3mna5uBkC6-41" value="" style="endArrow=none;html=1;rounded=0;exitX=1;exitY=0.5;exitDx=0;exitDy=0;entryX=0;entryY=0.5;entryDx=0;entryDy=0;" edge="1" parent="1" source="Tj6w95I26i3mna5uBkC6-12" target="Tj6w95I26i3mna5uBkC6-13">
          <mxGeometry width="50" height="50" relative="1" as="geometry">
            <mxPoint x="330" y="210" as="sourcePoint" />
            <mxPoint x="380" y="160" as="targetPoint" />
          </mxGeometry>
        </mxCell>
        <mxCell id="Tj6w95I26i3mna5uBkC6-44" value="&lt;div&gt;Art&lt;/div&gt;&lt;div&gt;Move&lt;br&gt;&lt;/div&gt;" style="rhombus;whiteSpace=wrap;html=1;" vertex="1" parent="1">
          <mxGeometry x="370" y="370" width="80" height="80" as="geometry" />
        </mxCell>
        <mxCell id="Tj6w95I26i3mna5uBkC6-45" value="" style="endArrow=none;html=1;rounded=0;entryX=0.75;entryY=1;entryDx=0;entryDy=0;exitX=0.5;exitY=0;exitDx=0;exitDy=0;" edge="1" parent="1" source="Tj6w95I26i3mna5uBkC6-44" target="Tj6w95I26i3mna5uBkC6-2">
          <mxGeometry width="50" height="50" relative="1" as="geometry">
            <mxPoint x="420" y="420" as="sourcePoint" />
            <mxPoint x="470" y="370" as="targetPoint" />
          </mxGeometry>
        </mxCell>
        <mxCell id="Tj6w95I26i3mna5uBkC6-46" value="" style="endArrow=none;html=1;rounded=0;exitX=0.5;exitY=0;exitDx=0;exitDy=0;entryX=0.5;entryY=1;entryDx=0;entryDy=0;" edge="1" parent="1" source="Tj6w95I26i3mna5uBkC6-5" target="Tj6w95I26i3mna5uBkC6-44">
          <mxGeometry width="50" height="50" relative="1" as="geometry">
            <mxPoint x="420" y="420" as="sourcePoint" />
            <mxPoint x="470" y="370" as="targetPoint" />
          </mxGeometry>
        </mxCell>
        <mxCell id="Tj6w95I26i3mna5uBkC6-47" value="Target Location" style="rhombus;whiteSpace=wrap;html=1;" vertex="1" parent="1">
          <mxGeometry x="990" y="470" width="80" height="80" as="geometry" />
        </mxCell>
        <mxCell id="Tj6w95I26i3mna5uBkC6-48" value="" style="endArrow=none;html=1;rounded=0;exitX=1;exitY=0.5;exitDx=0;exitDy=0;entryX=0;entryY=0.5;entryDx=0;entryDy=0;" edge="1" parent="1" source="Tj6w95I26i3mna5uBkC6-5" target="Tj6w95I26i3mna5uBkC6-47">
          <mxGeometry width="50" height="50" relative="1" as="geometry">
            <mxPoint x="450" y="390" as="sourcePoint" />
            <mxPoint x="500" y="340" as="targetPoint" />
          </mxGeometry>
        </mxCell>
        <mxCell id="Tj6w95I26i3mna5uBkC6-49" value="&lt;div&gt;Created&lt;/div&gt;&lt;div&gt;by&lt;br&gt;&lt;/div&gt;" style="rhombus;whiteSpace=wrap;html=1;" vertex="1" parent="1">
          <mxGeometry x="310" y="140" width="80" height="80" as="geometry" />
        </mxCell>
        <mxCell id="Tj6w95I26i3mna5uBkC6-50" value="" style="endArrow=none;html=1;rounded=0;entryX=1;entryY=0.5;entryDx=0;entryDy=0;" edge="1" parent="1" target="Tj6w95I26i3mna5uBkC6-1">
          <mxGeometry width="50" height="50" relative="1" as="geometry">
            <mxPoint x="350" y="140" as="sourcePoint" />
            <mxPoint x="400" y="90" as="targetPoint" />
            <Array as="points">
              <mxPoint x="350" y="-20" />
            </Array>
          </mxGeometry>
        </mxCell>
        <mxCell id="Tj6w95I26i3mna5uBkC6-51" value="" style="endArrow=none;html=1;rounded=0;entryX=0.5;entryY=1;entryDx=0;entryDy=0;exitX=0.5;exitY=0;exitDx=0;exitDy=0;" edge="1" parent="1" source="Tj6w95I26i3mna5uBkC6-2" target="Tj6w95I26i3mna5uBkC6-49">
          <mxGeometry width="50" height="50" relative="1" as="geometry">
            <mxPoint x="450" y="360" as="sourcePoint" />
            <mxPoint x="500" y="310" as="targetPoint" />
          </mxGeometry>
        </mxCell>
        <mxCell id="Tj6w95I26i3mna5uBkC6-52" value="" style="endArrow=none;html=1;rounded=0;exitX=1;exitY=0.5;exitDx=0;exitDy=0;entryX=0;entryY=0.5;entryDx=0;entryDy=0;" edge="1" parent="1" source="Tj6w95I26i3mna5uBkC6-13" target="Tj6w95I26i3mna5uBkC6-4">
          <mxGeometry width="50" height="50" relative="1" as="geometry">
            <mxPoint x="430" y="300" as="sourcePoint" />
            <mxPoint x="480" y="250" as="targetPoint" />
            <Array as="points">
              <mxPoint x="790" y="-125" />
              <mxPoint x="790" y="65" />
            </Array>
          </mxGeometry>
        </mxCell>
        <mxCell id="Tj6w95I26i3mna5uBkC6-53" value="" style="endArrow=none;html=1;rounded=0;entryX=0.5;entryY=1;entryDx=0;entryDy=0;exitX=0.5;exitY=0;exitDx=0;exitDy=0;" edge="1" parent="1" source="Tj6w95I26i3mna5uBkC6-47" target="Tj6w95I26i3mna5uBkC6-4">
          <mxGeometry width="50" height="50" relative="1" as="geometry">
            <mxPoint x="595" y="420" as="sourcePoint" />
            <mxPoint x="645" y="370" as="targetPoint" />
          </mxGeometry>
        </mxCell>
        <mxCell id="Tj6w95I26i3mna5uBkC6-58" value="&lt;div&gt;Creation&lt;/div&gt;&lt;div&gt;date&lt;br&gt;&lt;/div&gt;" style="ellipse;whiteSpace=wrap;html=1;" vertex="1" parent="1">
          <mxGeometry x="200" y="400" width="100" height="70" as="geometry" />
        </mxCell>
        <mxCell id="Tj6w95I26i3mna5uBkC6-59" value="" style="endArrow=none;html=1;rounded=0;exitX=0.5;exitY=0;exitDx=0;exitDy=0;entryX=0.5;entryY=1;entryDx=0;entryDy=0;" edge="1" parent="1" source="Tj6w95I26i3mna5uBkC6-58" target="Tj6w95I26i3mna5uBkC6-2">
          <mxGeometry width="50" height="50" relative="1" as="geometry">
            <mxPoint x="70" y="480" as="sourcePoint" />
            <mxPoint x="100" y="430" as="targetPoint" />
          </mxGeometry>
        </mxCell>
        <mxCell id="Tj6w95I26i3mna5uBkC6-60" value="" style="endArrow=none;html=1;rounded=0;entryX=0.5;entryY=1;entryDx=0;entryDy=0;exitX=1;exitY=0.25;exitDx=0;exitDy=0;" edge="1" parent="1" source="Tj6w95I26i3mna5uBkC6-5" target="Tj6w95I26i3mna5uBkC6-6">
          <mxGeometry width="50" height="50" relative="1" as="geometry">
            <mxPoint x="430" y="480" as="sourcePoint" />
            <mxPoint x="480" y="430" as="targetPoint" />
          </mxGeometry>
        </mxCell>
        <mxCell id="Tj6w95I26i3mna5uBkC6-61" value="" style="endArrow=none;html=1;rounded=0;entryX=0;entryY=0.5;entryDx=0;entryDy=0;exitX=1;exitY=0.5;exitDx=0;exitDy=0;" edge="1" parent="1" source="Tj6w95I26i3mna5uBkC6-2" target="Tj6w95I26i3mna5uBkC6-6">
          <mxGeometry width="50" height="50" relative="1" as="geometry">
            <mxPoint x="430" y="480" as="sourcePoint" />
            <mxPoint x="520" y="360" as="targetPoint" />
          </mxGeometry>
        </mxCell>
        <mxCell id="Tj6w95I26i3mna5uBkC6-62" value="Day" style="ellipse;whiteSpace=wrap;html=1;" vertex="1" parent="1">
          <mxGeometry x="680" y="380" width="100" height="70" as="geometry" />
        </mxCell>
        <mxCell id="Tj6w95I26i3mna5uBkC6-63" value="Year" style="ellipse;whiteSpace=wrap;html=1;" vertex="1" parent="1">
          <mxGeometry x="680" y="290" width="100" height="70" as="geometry" />
        </mxCell>
        <mxCell id="Tj6w95I26i3mna5uBkC6-64" value="" style="endArrow=none;html=1;rounded=0;entryX=0;entryY=0.5;entryDx=0;entryDy=0;exitX=1;exitY=0.5;exitDx=0;exitDy=0;" edge="1" parent="1" source="Tj6w95I26i3mna5uBkC6-6" target="Tj6w95I26i3mna5uBkC6-63">
          <mxGeometry width="50" height="50" relative="1" as="geometry">
            <mxPoint x="480" y="330" as="sourcePoint" />
            <mxPoint x="530" y="280" as="targetPoint" />
          </mxGeometry>
        </mxCell>
        <mxCell id="Tj6w95I26i3mna5uBkC6-65" value="" style="endArrow=none;html=1;rounded=0;entryX=0;entryY=0.5;entryDx=0;entryDy=0;exitX=1;exitY=0.5;exitDx=0;exitDy=0;" edge="1" parent="1" source="Tj6w95I26i3mna5uBkC6-6" target="Tj6w95I26i3mna5uBkC6-62">
          <mxGeometry width="50" height="50" relative="1" as="geometry">
            <mxPoint x="660" y="370" as="sourcePoint" />
            <mxPoint x="690" y="335" as="targetPoint" />
          </mxGeometry>
        </mxCell>
        <mxCell id="Tj6w95I26i3mna5uBkC6-66" value="d" style="ellipse;whiteSpace=wrap;html=1;aspect=fixed;" vertex="1" parent="1">
          <mxGeometry x="1140" y="45" width="40" height="40" as="geometry" />
        </mxCell>
        <mxCell id="Tj6w95I26i3mna5uBkC6-67" value="Size" style="ellipse;whiteSpace=wrap;html=1;" vertex="1" parent="1">
          <mxGeometry x="1390" y="30" width="100" height="70" as="geometry" />
        </mxCell>
        <mxCell id="Tj6w95I26i3mna5uBkC6-69" value="&lt;div&gt;Opening&lt;/div&gt;&lt;div&gt;Hours&lt;br&gt;&lt;/div&gt;" style="ellipse;whiteSpace=wrap;html=1;" vertex="1" parent="1">
          <mxGeometry x="1400" y="275" width="100" height="70" as="geometry" />
        </mxCell>
        <mxCell id="Tj6w95I26i3mna5uBkC6-71" value="" style="endArrow=none;html=1;rounded=0;entryX=0;entryY=0.5;entryDx=0;entryDy=0;exitX=1;exitY=0.5;exitDx=0;exitDy=0;" edge="1" parent="1" source="Tj6w95I26i3mna5uBkC6-4" target="Tj6w95I26i3mna5uBkC6-66">
          <mxGeometry width="50" height="50" relative="1" as="geometry">
            <mxPoint x="960" y="300" as="sourcePoint" />
            <mxPoint x="1010" y="250" as="targetPoint" />
          </mxGeometry>
        </mxCell>
        <mxCell id="Tj6w95I26i3mna5uBkC6-72" value="" style="endArrow=none;html=1;rounded=0;entryX=0;entryY=0.5;entryDx=0;entryDy=0;exitX=1;exitY=0.5;exitDx=0;exitDy=0;" edge="1" parent="1" source="Tj6w95I26i3mna5uBkC6-66" target="Tj6w95I26i3mna5uBkC6-7">
          <mxGeometry width="50" height="50" relative="1" as="geometry">
            <mxPoint x="1100" y="75" as="sourcePoint" />
            <mxPoint x="1150" y="75" as="targetPoint" />
          </mxGeometry>
        </mxCell>
        <mxCell id="Tj6w95I26i3mna5uBkC6-73" value="" style="endArrow=none;html=1;rounded=0;entryX=0;entryY=0.5;entryDx=0;entryDy=0;exitX=0.5;exitY=1;exitDx=0;exitDy=0;" edge="1" parent="1" source="Tj6w95I26i3mna5uBkC6-66" target="Tj6w95I26i3mna5uBkC6-3">
          <mxGeometry width="50" height="50" relative="1" as="geometry">
            <mxPoint x="1190" y="75" as="sourcePoint" />
            <mxPoint x="1250" y="70" as="targetPoint" />
            <Array as="points">
              <mxPoint x="1160" y="310" />
            </Array>
          </mxGeometry>
        </mxCell>
        <mxCell id="Tj6w95I26i3mna5uBkC6-74" value="" style="endArrow=none;html=1;rounded=0;entryX=0;entryY=0.5;entryDx=0;entryDy=0;exitX=1;exitY=0.5;exitDx=0;exitDy=0;" edge="1" parent="1" source="Tj6w95I26i3mna5uBkC6-7" target="Tj6w95I26i3mna5uBkC6-67">
          <mxGeometry width="50" height="50" relative="1" as="geometry">
            <mxPoint x="960" y="300" as="sourcePoint" />
            <mxPoint x="1010" y="250" as="targetPoint" />
          </mxGeometry>
        </mxCell>
        <mxCell id="Tj6w95I26i3mna5uBkC6-75" value="" style="endArrow=none;html=1;rounded=0;entryX=0;entryY=0.5;entryDx=0;entryDy=0;exitX=1;exitY=0.5;exitDx=0;exitDy=0;" edge="1" parent="1" source="Tj6w95I26i3mna5uBkC6-3" target="Tj6w95I26i3mna5uBkC6-69">
          <mxGeometry width="50" height="50" relative="1" as="geometry">
            <mxPoint x="1360" y="75" as="sourcePoint" />
            <mxPoint x="1400" y="70" as="targetPoint" />
          </mxGeometry>
        </mxCell>
      </root>
    </mxGraphModel>
  </diagram>
</mxfile>
